<svg width="103" height="14" viewBox="0 0 103 14" fill="none" xmlns="http://www.w3.org/2000/svg">
<path d="M0.268066 13.41H13.2681V0.41H0.268066V13.41ZM21.2234 9.43466H22.6268L23.6147 10.7227L24.081 11.2951L25.6552 13.3494H24.1964L23.1439 11.9783L22.7838 11.4798L21.2234 9.43466ZM25.9599 7.77273C25.9599 8.7822 25.7753 9.65009 25.4059 10.3764C25.0366 11.0997 24.5303 11.6567 23.8871 12.0476C23.247 12.4354 22.5191 12.6293 21.7035 12.6293C20.8849 12.6293 20.1539 12.4354 19.5107 12.0476C18.8705 11.6567 18.3658 11.0981 17.9965 10.3718C17.6272 9.64548 17.4425 8.77912 17.4425 7.77273C17.4425 6.76326 17.6272 5.8969 17.9965 5.17365C18.3658 4.44732 18.8705 3.89027 19.5107 3.50249C20.1539 3.11162 20.8849 2.91619 21.7035 2.91619C22.5191 2.91619 23.247 3.11162 23.8871 3.50249C24.5303 3.89027 25.0366 4.44732 25.4059 5.17365C25.7753 5.8969 25.9599 6.76326 25.9599 7.77273ZM24.5473 7.77273C24.5473 7.00331 24.4226 6.35547 24.1733 5.82919C23.9271 5.29983 23.5886 4.89974 23.1577 4.62891C22.7299 4.355 22.2452 4.21804 21.7035 4.21804C21.1588 4.21804 20.6725 4.355 20.2447 4.62891C19.8169 4.89974 19.4784 5.29983 19.2291 5.82919C18.9829 6.35547 18.8598 7.00331 18.8598 7.77273C18.8598 8.54214 18.9829 9.19152 19.2291 9.72088C19.4784 10.2472 19.8169 10.6473 20.2447 10.9212C20.6725 11.192 21.1588 11.3274 21.7035 11.3274C22.2452 11.3274 22.7299 11.192 23.1577 10.9212C23.5886 10.6473 23.9271 10.2472 24.1733 9.72088C24.4226 9.19152 24.5473 8.54214 24.5473 7.77273ZM32.1195 9.5593V5.40909H33.5044V12.5H32.1472V11.272H32.0733C31.9102 11.6506 31.6486 11.966 31.2885 12.2184C30.9315 12.4677 30.4868 12.5923 29.9543 12.5923C29.4988 12.5923 29.0957 12.4923 28.7448 12.2923C28.397 12.0891 28.1231 11.7891 27.9231 11.392C27.7261 10.995 27.6276 10.5041 27.6276 9.91939V5.40909H29.0079V9.7532C29.0079 10.2364 29.1418 10.6211 29.4096 10.9073C29.6773 11.1935 30.0251 11.3366 30.4529 11.3366C30.7114 11.3366 30.9684 11.272 31.2239 11.1428C31.4824 11.0135 31.6963 10.8181 31.8655 10.5565C32.0379 10.2949 32.1225 9.96248 32.1195 9.5593ZM35.3591 12.5V5.40909H36.7394V12.5H35.3591ZM36.0562 4.31499C35.8161 4.31499 35.6099 4.23497 35.4375 4.07493C35.2683 3.91181 35.1836 3.71792 35.1836 3.49325C35.1836 3.26551 35.2683 3.07161 35.4375 2.91158C35.6099 2.74846 35.8161 2.6669 36.0562 2.6669C36.2962 2.6669 36.5009 2.74846 36.6701 2.91158C36.8425 3.07161 36.9287 3.26551 36.9287 3.49325C36.9287 3.71792 36.8425 3.91181 36.6701 4.07493C36.5009 4.23497 36.2962 4.31499 36.0562 4.31499ZM41.5832 12.6431C40.8969 12.6431 40.306 12.4877 39.8105 12.1768C39.3181 11.8629 38.9395 11.4305 38.6748 10.8796C38.4102 10.3287 38.2778 9.6978 38.2778 8.98686C38.2778 8.26669 38.4132 7.63115 38.6841 7.08026C38.9549 6.52628 39.3365 6.09387 39.829 5.78303C40.3214 5.47218 40.9015 5.31676 41.5694 5.31676C42.108 5.31676 42.5881 5.41679 43.0097 5.61683C43.4314 5.8138 43.7714 6.09079 44.03 6.4478C44.2916 6.80481 44.447 7.22183 44.4962 7.69886H43.1528C43.079 7.36648 42.9097 7.08026 42.645 6.8402C42.3834 6.60014 42.0326 6.48011 41.5925 6.48011C41.2078 6.48011 40.8708 6.58168 40.5815 6.7848C40.2952 6.98485 40.0721 7.27107 39.9121 7.64347C39.752 8.01278 39.672 8.44981 39.672 8.95455C39.672 9.47159 39.7505 9.91785 39.9074 10.2933C40.0644 10.6688 40.286 10.9596 40.5722 11.1658C40.8615 11.372 41.2016 11.4751 41.5925 11.4751C41.8541 11.4751 42.091 11.4274 42.3034 11.332C42.5188 11.2335 42.6989 11.0935 42.8435 10.9119C42.9913 10.7304 43.0944 10.5118 43.1528 10.2564H44.4962C44.447 10.715 44.2977 11.1243 44.0484 11.4844C43.7991 11.8445 43.4652 12.1276 43.0467 12.3338C42.6312 12.54 42.1434 12.6431 41.5832 12.6431ZM47.2419 10.0948L47.2326 8.4098H47.4727L50.298 5.40909H51.9507L48.7284 8.82528H48.5114L47.2419 10.0948ZM45.9723 12.5V3.04545H47.3527V12.5H45.9723ZM50.4503 12.5L47.9113 9.12997L48.8623 8.16513L52.1446 12.5H50.4503ZM57.5585 12.5H56.0443L59.4467 3.04545H61.0948L64.4971 12.5H62.9829L60.31 4.76278H60.2361L57.5585 12.5ZM57.8125 8.79758H62.7244V9.99787H57.8125V8.79758ZM68.6242 12.6431C67.9379 12.6431 67.347 12.4877 66.8515 12.1768C66.3591 11.8629 65.9805 11.4305 65.7159 10.8796C65.4512 10.3287 65.3188 9.6978 65.3188 8.98686C65.3188 8.26669 65.4543 7.63115 65.7251 7.08026C65.9959 6.52628 66.3776 6.09387 66.87 5.78303C67.3624 5.47218 67.9425 5.31676 68.6104 5.31676C69.149 5.31676 69.6291 5.41679 70.0507 5.61683C70.4724 5.8138 70.8125 6.09079 71.071 6.4478C71.3326 6.80481 71.488 7.22183 71.5372 7.69886H70.1938C70.12 7.36648 69.9507 7.08026 69.686 6.8402C69.4244 6.60014 69.0736 6.48011 68.6335 6.48011C68.2488 6.48011 67.9118 6.58168 67.6225 6.7848C67.3362 6.98485 67.1131 7.27107 66.9531 7.64347C66.793 8.01278 66.713 8.44981 66.713 8.95455C66.713 9.47159 66.7915 9.91785 66.9485 10.2933C67.1054 10.6688 67.327 10.9596 67.6132 11.1658C67.9025 11.372 68.2426 11.4751 68.6335 11.4751C68.8951 11.4751 69.1321 11.4274 69.3444 11.332C69.5599 11.2335 69.7399 11.0935 69.8845 10.9119C70.0323 10.7304 70.1354 10.5118 70.1938 10.2564H71.5372C71.488 10.715 71.3387 11.1243 71.0894 11.4844C70.8402 11.8445 70.5062 12.1276 70.0877 12.3338C69.6722 12.54 69.1844 12.6431 68.6242 12.6431ZM76.3234 5.40909V6.51705H72.4502V5.40909H76.3234ZM73.4889 3.71023H74.8692V10.418C74.8692 10.6857 74.9092 10.8873 74.9892 11.0227C75.0692 11.1551 75.1723 11.2459 75.2985 11.2951C75.4278 11.3413 75.5678 11.3643 75.7186 11.3643C75.8294 11.3643 75.9264 11.3567 76.0095 11.3413C76.0926 11.3259 76.1572 11.3136 76.2033 11.3043L76.4526 12.4446C76.3726 12.4754 76.2587 12.5062 76.111 12.5369C75.9633 12.5708 75.7786 12.5893 75.557 12.5923C75.1939 12.5985 74.8553 12.5339 74.5414 12.3984C74.2275 12.263 73.9736 12.0537 73.7797 11.7706C73.5858 11.4875 73.4889 11.132 73.4889 10.7042V3.71023ZM77.8503 12.5V5.40909H79.2306V12.5H77.8503ZM78.5474 4.31499C78.3073 4.31499 78.1011 4.23497 77.9288 4.07493C77.7595 3.91181 77.6748 3.71792 77.6748 3.49325C77.6748 3.26551 77.7595 3.07161 77.9288 2.91158C78.1011 2.74846 78.3073 2.6669 78.5474 2.6669C78.7874 2.6669 78.9921 2.74846 79.1614 2.91158C79.3337 3.07161 79.4199 3.26551 79.4199 3.49325C79.4199 3.71792 79.3337 3.91181 79.1614 4.07493C78.9921 4.23497 78.7874 4.31499 78.5474 4.31499ZM84.0744 12.6431C83.4097 12.6431 82.8295 12.4908 82.334 12.1861C81.8385 11.8814 81.4538 11.4551 81.1799 10.9073C80.906 10.3595 80.769 9.71934 80.769 8.98686C80.769 8.2513 80.906 7.60807 81.1799 7.05717C81.4538 6.50627 81.8385 6.07848 82.334 5.77379C82.8295 5.46911 83.4097 5.31676 84.0744 5.31676C84.7392 5.31676 85.3194 5.46911 85.8149 5.77379C86.3104 6.07848 86.6951 6.50627 86.969 7.05717C87.2429 7.60807 87.3798 8.2513 87.3798 8.98686C87.3798 9.71934 87.2429 10.3595 86.969 10.9073C86.6951 11.4551 86.3104 11.8814 85.8149 12.1861C85.3194 12.4908 84.7392 12.6431 84.0744 12.6431ZM84.0791 11.4844C84.5099 11.4844 84.8669 11.3705 85.1501 11.1428C85.4332 10.915 85.6425 10.6119 85.7779 10.2333C85.9164 9.85476 85.9857 9.43774 85.9857 8.98224C85.9857 8.52983 85.9164 8.11435 85.7779 7.7358C85.6425 7.35417 85.4332 7.04794 85.1501 6.81712C84.8669 6.58629 84.5099 6.47088 84.0791 6.47088C83.6451 6.47088 83.285 6.58629 82.9988 6.81712C82.7157 7.04794 82.5048 7.35417 82.3663 7.7358C82.2309 8.11435 82.1632 8.52983 82.1632 8.98224C82.1632 9.43774 82.2309 9.85476 82.3663 10.2333C82.5048 10.6119 82.7157 10.915 82.9988 11.1428C83.285 11.3705 83.6451 11.4844 84.0791 11.4844ZM90.3009 8.28977V12.5H88.9206V5.40909H90.2455V6.56321H90.3332C90.4963 6.18774 90.7518 5.88613 91.0996 5.65838C91.4504 5.43063 91.8921 5.31676 92.4245 5.31676C92.9077 5.31676 93.3309 5.41832 93.694 5.62145C94.0572 5.8215 94.3388 6.12003 94.5388 6.51705C94.7389 6.91406 94.8389 7.40495 94.8389 7.9897V12.5H93.4586V8.15589C93.4586 7.64193 93.3247 7.24029 93.057 6.95099C92.7892 6.65862 92.4214 6.51243 91.9536 6.51243C91.6335 6.51243 91.3489 6.58168 91.0996 6.72017C90.8534 6.85866 90.6579 7.06179 90.5133 7.32955C90.3717 7.59422 90.3009 7.9143 90.3009 8.28977ZM102.004 7.14027L100.753 7.36186C100.7 7.20182 100.617 7.04948 100.503 6.90483C100.393 6.76018 100.242 6.64169 100.051 6.54936C99.8601 6.45703 99.6216 6.41087 99.3354 6.41087C98.9445 6.41087 98.6183 6.49858 98.3567 6.67401C98.0951 6.84635 97.9643 7.06948 97.9643 7.34339C97.9643 7.58037 98.052 7.77119 98.2274 7.91584C98.4028 8.06049 98.686 8.17898 99.0768 8.27131L100.203 8.52983C100.856 8.68063 101.342 8.913 101.662 9.22692C101.982 9.54084 102.142 9.94863 102.142 10.4503C102.142 10.875 102.019 11.2536 101.773 11.5859C101.53 11.9152 101.19 12.1738 100.753 12.3615C100.319 12.5492 99.8155 12.6431 99.243 12.6431C98.449 12.6431 97.8012 12.4738 97.2995 12.1353C96.7978 11.7937 96.4901 11.3089 96.3762 10.6811L97.7104 10.478C97.7935 10.8258 97.9643 11.0889 98.2228 11.2674C98.4813 11.4428 98.8183 11.5305 99.2338 11.5305C99.6862 11.5305 100.048 11.4367 100.319 11.2489C100.59 11.0581 100.725 10.8258 100.725 10.5518C100.725 10.3303 100.642 10.1441 100.476 9.99325C100.313 9.84245 100.062 9.72857 99.7231 9.65163L98.5229 9.38849C97.8612 9.23769 97.3718 8.99763 97.0548 8.66832C96.7409 8.33901 96.5839 7.92199 96.5839 7.41726C96.5839 6.9987 96.7009 6.63246 96.9348 6.31854C97.1687 6.00462 97.4918 5.75994 97.9043 5.58452C98.3167 5.40601 98.7891 5.31676 99.3215 5.31676C100.088 5.31676 100.691 5.48295 101.131 5.81534C101.571 6.14465 101.862 6.58629 102.004 7.14027Z" fill="#273142"/>
</svg>
