<svg width="16" height="17" viewBox="0 0 16 17" fill="none" xmlns="http://www.w3.org/2000/svg">
<path d="M12 5.83334C12 4.77248 11.5786 3.75506 10.8284 3.00492C10.0783 2.25477 9.06087 1.83334 8 1.83334C6.93913 1.83334 5.92172 2.25477 5.17157 3.00492C4.42143 3.75506 4 4.77248 4 5.83334C4 10.5 2 11.8333 2 11.8333H14C14 11.8333 12 10.5 12 5.83334Z" stroke="#273142" stroke-width="1.3" stroke-linecap="round" stroke-linejoin="round"/>
<path d="M9.1531 14.5C9.03589 14.7021 8.86766 14.8698 8.66525 14.9864C8.46284 15.1029 8.23335 15.1643 7.99977 15.1643C7.76618 15.1643 7.5367 15.1029 7.33428 14.9864C7.13187 14.8698 6.96364 14.7021 6.84644 14.5" stroke="#273142" stroke-width="1.3" stroke-linecap="round" stroke-linejoin="round"/>
</svg>
