<svg width="14" height="14" viewBox="0 0 14 14" fill="none" xmlns="http://www.w3.org/2000/svg">
<g clip-path="url(#clip0_1_2413)">
<path d="M9.91675 1.75C10.07 1.59679 10.2518 1.47526 10.452 1.39235C10.6522 1.30943 10.8667 1.26675 11.0834 1.26675C11.3001 1.26675 11.5146 1.30943 11.7148 1.39235C11.915 1.47526 12.0969 1.59679 12.2501 1.75C12.4033 1.90321 12.5248 2.0851 12.6077 2.28527C12.6907 2.48545 12.7333 2.7 12.7333 2.91667C12.7333 3.13334 12.6907 3.34789 12.6077 3.54807C12.5248 3.74824 12.4033 3.93013 12.2501 4.08334L4.37508 11.9583L1.16675 12.8333L2.04175 9.625L9.91675 1.75Z" stroke="#1E63D0" stroke-width="1.3" stroke-linecap="round" stroke-linejoin="round"/>
</g>
<defs>
<clipPath id="clip0_1_2413">
<rect width="14" height="14" fill="white"/>
</clipPath>
</defs>
</svg>
