<svg width="16" height="15" viewBox="0 0 16 15" fill="none" xmlns="http://www.w3.org/2000/svg">
<path fill-rule="evenodd" clip-rule="evenodd" d="M8.588 1.62899C8.20293 1.52474 7.79707 1.52474 7.412 1.62899C7.0115 1.73699 6.62225 2.02199 5.51375 2.88374L3.56375 4.40099C2.84975 4.95599 2.6105 5.15024 2.441 5.37899C2.2782 5.59919 2.15696 5.84725 2.08325 6.11099C2.00675 6.38474 2.00075 6.69374 2.00075 7.59749V9.44999C2.00075 10.302 2.00075 10.8967 2.03825 11.3595C2.07575 11.8132 2.14475 12.0742 2.24525 12.2715C2.46096 12.6948 2.80515 13.039 3.2285 13.2547C3.42575 13.3552 3.68675 13.4242 4.1405 13.4617C4.60325 13.4992 5.198 13.4992 6.05 13.4992H9.95C10.8028 13.4992 11.3967 13.4992 11.8595 13.4617C12.3132 13.4242 12.5742 13.3552 12.7715 13.2547C13.1948 13.039 13.539 12.6948 13.7548 12.2715C13.8553 12.0742 13.9242 11.8132 13.9618 11.3595C13.9992 10.8967 14 10.302 14 9.44999V7.59749C14 6.69374 13.9932 6.38474 13.9167 6.11099C13.8431 5.84725 13.7218 5.59918 13.559 5.37899C13.3895 5.15024 13.1503 4.95599 12.4363 4.40099L10.4862 2.88374C9.37775 2.02124 8.9885 1.73699 8.588 1.62899ZM7.0205 0.181492C7.6622 0.00778055 8.33855 0.00778055 8.98025 0.181492C9.71 0.378742 10.3505 0.877492 11.2797 1.60049L11.4072 1.70024L13.3573 3.21674L13.4375 3.27899C14.0405 3.74774 14.4575 4.07174 14.765 4.48724C15.0363 4.85408 15.2383 5.26735 15.3612 5.70674C15.5008 6.20399 15.5 6.73274 15.5 7.49624V9.48224C15.5 10.2945 15.5 10.9507 15.4565 11.4817C15.4115 12.0277 15.3177 12.5085 15.0912 12.9517C14.7319 13.6576 14.1582 14.2315 13.4525 14.5912C13.0085 14.8177 12.5285 14.9122 11.9818 14.9565C11.45 15 10.7952 15 9.98225 15H6.01775C5.20475 15 4.54925 15 4.01825 14.9565C3.47225 14.9115 2.9915 14.8177 2.54825 14.5912C1.84239 14.2318 1.26847 13.6582 0.90875 12.9525C0.68225 12.5085 0.58775 12.0277 0.5435 11.4817C0.5 10.95 0.5 10.2945 0.5 9.48224V7.59749V7.49624C0.5 6.73274 0.5 6.20399 0.63875 5.70674C0.761658 5.26735 0.963718 4.85408 1.235 4.48724C1.5425 4.07174 1.9595 3.74774 2.5625 3.27899L2.64275 3.21674L4.59275 1.70024L4.72025 1.60049C5.6495 0.877492 6.29 0.377992 7.01975 0.180742L7.0205 0.181492ZM5 11.25C5 11.0511 5.07902 10.8603 5.21967 10.7197C5.36032 10.579 5.55109 10.5 5.75 10.5H10.25C10.4489 10.5 10.6397 10.579 10.7803 10.7197C10.921 10.8603 11 11.0511 11 11.25C11 11.4489 10.921 11.6397 10.7803 11.7803C10.6397 11.921 10.4489 12 10.25 12H5.75C5.55109 12 5.36032 11.921 5.21967 11.7803C5.07902 11.6397 5 11.4489 5 11.25Z" fill="#344054"/>
</svg>
