<svg width="26" height="27" viewBox="0 0 26 27" fill="none" xmlns="http://www.w3.org/2000/svg">
<rect y="0.5" width="26" height="26" rx="6.4" fill="#F2F4F7"/>
<path d="M9.66667 8.83336C9.66667 9.56974 9.06971 10.1667 8.33333 10.1667C7.59695 10.1667 7 9.56974 7 8.83336C7 8.09698 7.59695 7.50003 8.33333 7.50003C9.06971 7.50003 9.66667 8.09698 9.66667 8.83336Z" fill="#344054"/>
<path d="M14.3334 8.83336C14.3334 9.56974 13.7365 10.1667 13.0001 10.1667C12.2637 10.1667 11.6667 9.56974 11.6667 8.83336C11.6667 8.09698 12.2637 7.50003 13.0001 7.50003C13.7365 7.50003 14.3334 8.09698 14.3334 8.83336Z" fill="#344054"/>
<path d="M17.6666 10.1667C18.403 10.1667 18.9999 9.56974 18.9999 8.83336C18.9999 8.09698 18.403 7.50003 17.6666 7.50003C16.9302 7.50003 16.3333 8.09698 16.3333 8.83336C16.3333 9.56974 16.9302 10.1667 17.6666 10.1667Z" fill="#344054"/>
<path d="M9.66667 13.5C9.66667 14.2364 9.06971 14.8334 8.33333 14.8334C7.59695 14.8334 7 14.2364 7 13.5C7 12.7636 7.59695 12.1667 8.33333 12.1667C9.06971 12.1667 9.66667 12.7636 9.66667 13.5Z" fill="#344054"/>
<path d="M13.0001 14.8334C13.7365 14.8334 14.3334 14.2364 14.3334 13.5C14.3334 12.7636 13.7365 12.1667 13.0001 12.1667C12.2637 12.1667 11.6667 12.7636 11.6667 13.5C11.6667 14.2364 12.2637 14.8334 13.0001 14.8334Z" fill="#344054"/>
<path d="M18.9999 13.5C18.9999 14.2364 18.403 14.8334 17.6666 14.8334C16.9302 14.8334 16.3333 14.2364 16.3333 13.5C16.3333 12.7636 16.9302 12.1667 17.6666 12.1667C18.403 12.1667 18.9999 12.7636 18.9999 13.5Z" fill="#344054"/>
<path d="M8.33333 19.5C9.06971 19.5 9.66667 18.9031 9.66667 18.1667C9.66667 17.4303 9.06971 16.8334 8.33333 16.8334C7.59695 16.8334 7 17.4303 7 18.1667C7 18.9031 7.59695 19.5 8.33333 19.5Z" fill="#344054"/>
<path d="M14.3334 18.1667C14.3334 18.9031 13.7365 19.5 13.0001 19.5C12.2637 19.5 11.6667 18.9031 11.6667 18.1667C11.6667 17.4303 12.2637 16.8334 13.0001 16.8334C13.7365 16.8334 14.3334 17.4303 14.3334 18.1667Z" fill="#344054"/>
<path d="M17.6666 19.5C18.403 19.5 18.9999 18.9031 18.9999 18.1667C18.9999 17.4303 18.403 16.8334 17.6666 16.8334C16.9302 16.8334 16.3333 17.4303 16.3333 18.1667C16.3333 18.9031 16.9302 19.5 17.6666 19.5Z" fill="#344054"/>
</svg>
