<svg width="103" height="19" viewBox="0 0 103 19" fill="none" xmlns="http://www.w3.org/2000/svg">
<path d="M0.843506 17.5695V10.9313L13.5567 10.9176C13.5685 10.9176 13.5797 10.9222 13.588 10.9305C13.5963 10.9388 13.601 10.9501 13.601 10.9619V15.9722C13.601 15.9862 13.6066 15.9996 13.6165 16.0095C13.6263 16.0193 13.6397 16.0249 13.6537 16.0249H17.3966C17.4318 16.0249 17.4493 16.0073 17.4493 15.9722V14.5488C17.4493 14.5136 17.4318 14.4961 17.3966 14.4961H15.7245C15.6816 14.4961 15.6601 14.4746 15.6601 14.4318L15.6559 12.9947C15.6559 12.9588 15.6735 12.9409 15.7086 12.9409H17.3966C17.4318 12.9409 17.4493 12.9233 17.4493 12.8882V11.7547C17.4493 11.7196 17.4318 11.702 17.3966 11.702H15.7097C15.6745 11.702 15.657 11.6844 15.657 11.6493V10.2027C15.657 10.1879 15.6629 10.1737 15.6733 10.1632C15.6838 10.1527 15.698 10.1468 15.7129 10.1468H17.3966C17.4318 10.1468 17.4493 10.1293 17.4493 10.0941V8.93432C17.4493 8.89918 17.4318 8.8816 17.3966 8.8816H15.7266C15.6802 8.8816 15.657 8.85876 15.657 8.81307V7.4192C15.657 7.37492 15.6788 7.35278 15.7223 7.35278H17.3703C17.3912 7.35278 17.4114 7.34445 17.4262 7.32962C17.441 7.31479 17.4493 7.29467 17.4493 7.2737V5.7976C17.4493 5.76245 17.4318 5.74488 17.3966 5.74488H6.29971C6.28573 5.74488 6.27232 5.73932 6.26243 5.72944C6.25255 5.71955 6.24699 5.70614 6.24699 5.69216V3.00354C6.24699 2.96839 6.22942 2.95082 6.19428 2.95082H2.45137C2.41623 2.95082 2.39866 2.96839 2.39866 3.00354V5.66685C2.39866 5.70903 2.37757 5.73117 2.3354 5.73328C1.82791 5.76421 1.33061 5.75718 0.843506 5.71219V1.44203L7.75365 1.42832C7.78598 1.42832 7.80215 1.44449 7.80215 1.47682V4.16334C7.80215 4.19848 7.81972 4.21605 7.85486 4.21605H11.9931C12.0283 4.21605 12.0459 4.19848 12.0459 4.16334V1.48737C12.0459 1.44379 12.068 1.422 12.1123 1.422H18.9518C18.9658 1.422 18.9792 1.42755 18.9891 1.43744C18.9989 1.44732 19.0045 1.46073 19.0045 1.47472V17.5295C19.0045 17.5423 18.9994 17.5547 18.9903 17.5638C18.9812 17.5729 18.9689 17.578 18.956 17.578L0.843506 17.5695ZM17.4493 2.99616C17.4493 2.98413 17.4446 2.9726 17.4361 2.9641C17.4276 2.9556 17.416 2.95082 17.404 2.95082H13.6463C13.6343 2.95082 13.6228 2.9556 13.6143 2.9641C13.6058 2.9726 13.601 2.98413 13.601 2.99616V4.17072C13.601 4.18274 13.6058 4.19427 13.6143 4.20278C13.6228 4.21128 13.6343 4.21605 13.6463 4.21605H17.404C17.416 4.21605 17.4276 4.21128 17.4361 4.20278C17.4446 4.19427 17.4493 4.18274 17.4493 4.17072V2.99616ZM6.50214 14.2325C6.4904 14.2325 6.47914 14.2278 6.47083 14.2195C6.46253 14.2112 6.45786 14.1999 6.45786 14.1882V12.5107C6.45786 12.499 6.4532 12.4877 6.44489 12.4794C6.43659 12.4711 6.42532 12.4664 6.41358 12.4664H5.23694C5.22519 12.4664 5.21393 12.4711 5.20563 12.4794C5.19732 12.4877 5.19266 12.499 5.19266 12.5107V14.1882C5.19266 14.1999 5.18799 14.2112 5.17969 14.2195C5.17138 14.2278 5.16012 14.2325 5.14837 14.2325H3.67968C3.66793 14.2325 3.65667 14.2278 3.64837 14.2195C3.64006 14.2112 3.6354 14.1999 3.6354 14.1882L3.64067 12.5107C3.64067 12.5049 3.63952 12.4991 3.6373 12.4938C3.63507 12.4884 3.63181 12.4835 3.6277 12.4794C3.62359 12.4753 3.6187 12.472 3.61333 12.4698C3.60796 12.4676 3.6022 12.4664 3.59639 12.4664H2.44294C2.43119 12.4664 2.41993 12.4711 2.41163 12.4794C2.40332 12.4877 2.39866 12.499 2.39866 12.5107V15.9806C2.39866 15.9924 2.40332 16.0036 2.41163 16.0119C2.41993 16.0202 2.43119 16.0249 2.44294 16.0249H12.0016C12.0133 16.0249 12.0246 16.0202 12.0329 16.0119C12.0412 16.0036 12.0459 15.9924 12.0459 15.9806V12.5107C12.0459 12.499 12.0412 12.4877 12.0329 12.4794C12.0246 12.4711 12.0133 12.4664 12.0016 12.4664H10.8481C10.8364 12.4664 10.8251 12.4711 10.8168 12.4794C10.8085 12.4877 10.8038 12.499 10.8038 12.5107L10.8091 14.1882C10.8091 14.1999 10.8045 14.2112 10.7962 14.2195C10.7878 14.2278 10.7766 14.2325 10.7648 14.2325H9.29614C9.2844 14.2325 9.27314 14.2278 9.26483 14.2195C9.25653 14.2112 9.25186 14.1999 9.25186 14.1882V12.5107C9.25186 12.499 9.2472 12.4877 9.23889 12.4794C9.23059 12.4711 9.21932 12.4664 9.20758 12.4664H8.03094C8.02512 12.4664 8.01936 12.4676 8.01399 12.4698C8.00862 12.472 8.00374 12.4753 7.99962 12.4794C7.99551 12.4835 7.99225 12.4884 7.99002 12.4938C7.9878 12.4991 7.98665 12.5049 7.98665 12.5107V14.1882C7.98665 14.1999 7.98199 14.2112 7.97368 14.2195C7.96538 14.2278 7.95412 14.2325 7.94237 14.2325H6.50214Z" fill="#FAA831"/>
<path d="M42.1018 3.702H44.9958C45.0383 5.16601 45.034 6.61227 44.9831 8.04078C44.9808 8.10329 44.9985 8.10985 45.0363 8.06046C46.6998 5.90496 49.8635 6.50345 50.8371 8.97729C51.6798 11.1201 51.1821 14.4147 48.552 15.1301C47.0193 15.5468 45.8104 15.1293 44.9252 13.8775C44.9051 13.8482 44.8959 13.8513 44.8974 13.8868L44.9437 15.0386C44.946 15.0826 44.9248 15.1046 44.8801 15.1046H43.5129C43.4743 15.1046 43.455 15.0853 43.455 15.0467V4.98928C43.455 4.97024 43.4474 4.95198 43.4337 4.93852C43.42 4.92506 43.4015 4.9175 43.3821 4.9175H42.1527C42.1057 4.9175 42.0802 4.89435 42.0763 4.84804C42.0447 4.45754 42.0532 4.07552 42.1018 3.702ZM45.8791 8.61959C44.6983 9.59894 44.7342 11.788 45.5028 12.9815C46.2645 14.1658 47.869 14.2109 48.7754 13.33C49.8392 12.2974 49.9388 9.89529 48.8981 8.79555C48.0739 7.92501 46.7797 7.87176 45.8791 8.61959Z" fill="#273142"/>
<path d="M75.2101 3.702H76.8307L76.8215 5.23469C76.8207 5.27405 76.801 5.29373 76.7624 5.29373H75.261C75.2139 5.29373 75.1889 5.27019 75.1858 5.22312C75.1526 4.70913 75.1607 4.20209 75.2101 3.702Z" fill="#273142"/>
<path d="M69.3604 6.88257L69.3535 4.77337C69.3535 4.71472 69.3828 4.68539 69.4415 4.68539H70.8318C70.8703 4.68539 70.8896 4.70469 70.8896 4.74328V6.88488C70.8896 6.92347 70.9089 6.94276 70.9475 6.94276H72.7707C72.8286 6.94276 72.8576 6.9717 72.8576 7.02959V8.0564C72.8576 8.10502 72.8333 8.12933 72.7846 8.12933H70.9533C70.9163 8.12933 70.8977 8.14785 70.8977 8.1849C70.88 9.39346 70.8808 10.5974 70.9001 11.7967C70.9209 13.0955 71.4117 14.0066 72.927 13.8225C72.9772 13.8164 73.0023 13.8384 73.0023 13.8885V15.0705C73.0023 15.1029 72.9865 15.121 72.9548 15.1249C70.6431 15.449 69.3257 14.1733 69.3269 11.8916C69.3269 10.6568 69.3269 9.42201 69.3269 8.18721C69.3269 8.17186 69.3208 8.15714 69.3099 8.14628C69.2991 8.13543 69.2843 8.12933 69.269 8.12933H68.0269C67.9891 8.12933 67.9702 8.11081 67.9702 8.07376L67.9597 7.00065C67.959 6.96206 67.9783 6.94276 68.0176 6.94276H69.3002C69.3404 6.94276 69.3604 6.9227 69.3604 6.88257Z" fill="#273142"/>
<path d="M102.111 6.43003C102.117 6.642 102.081 6.85317 102.004 7.05148C101.927 7.24978 101.81 7.43134 101.661 7.58578C101.513 7.74022 101.334 7.86452 101.136 7.95159C100.938 8.03865 100.725 8.08678 100.508 8.09321C100.291 8.09965 100.075 8.06427 99.8724 7.98909C99.6696 7.91392 99.4841 7.80042 99.3263 7.65508C99.1685 7.50974 99.0416 7.3354 98.9528 7.14202C98.864 6.94864 98.8151 6.74001 98.8088 6.52803C98.8025 6.31606 98.839 6.10489 98.9162 5.90658C98.9933 5.70828 99.1097 5.52672 99.2585 5.37228C99.4074 5.21784 99.5859 5.09354 99.7838 5.00647C99.9818 4.91941 100.195 4.87128 100.412 4.86485C100.629 4.85841 100.845 4.89379 101.048 4.96897C101.25 5.04414 101.436 5.15764 101.594 5.30298C101.751 5.44832 101.878 5.62266 101.967 5.81604C102.056 6.00942 102.105 6.21805 102.111 6.43003ZM101.848 6.49961C101.85 6.32222 101.817 6.14606 101.749 5.9812C101.681 5.81633 101.581 5.66599 101.454 5.53875C101.326 5.41151 101.174 5.30987 101.006 5.23963C100.839 5.16938 100.658 5.13192 100.475 5.12937C100.106 5.12422 99.7505 5.26159 99.486 5.51128C99.2216 5.76096 99.0702 6.1025 99.0652 6.46076C99.0627 6.63815 99.0963 6.81431 99.1639 6.97918C99.2315 7.14404 99.3319 7.29439 99.4594 7.42163C99.5868 7.54887 99.7388 7.65051 99.9067 7.72075C100.075 7.79099 100.255 7.82846 100.438 7.83101C100.807 7.83616 101.163 7.69878 101.427 7.4491C101.691 7.19941 101.843 6.85787 101.848 6.49961Z" fill="#273142"/>
<path d="M100.706 6.61178L101.19 7.31446C101.237 7.38237 101.219 7.41363 101.137 7.40823L100.942 7.39665C100.904 7.39434 100.876 7.37581 100.858 7.34109C100.71 7.05515 100.467 6.48097 100.058 6.6141C100.019 6.62645 100 6.65307 100.001 6.69397L100.013 7.33761C100.014 7.39627 99.9862 7.4198 99.9283 7.40823L99.7963 7.3816C99.7585 7.37389 99.74 7.35112 99.7407 7.3133L99.7465 5.75167C99.7465 5.71076 99.7666 5.68761 99.8067 5.68221C100.186 5.62973 100.558 5.65636 100.922 5.76208C100.971 5.77675 101.006 5.808 101.026 5.85585C101.172 6.19928 101.074 6.42502 100.733 6.53306C100.689 6.54773 100.68 6.57397 100.706 6.61178ZM100.014 5.96467V6.30038C100.014 6.31727 100.021 6.33346 100.033 6.3454C100.045 6.35734 100.061 6.36405 100.078 6.36405L100.475 6.36521C100.565 6.3653 100.651 6.34245 100.715 6.30166C100.779 6.26087 100.815 6.20546 100.815 6.14757V6.12211C100.815 6.09331 100.806 6.06476 100.789 6.0381C100.772 6.01145 100.747 5.98721 100.716 5.96677C100.684 5.94634 100.647 5.93011 100.605 5.91902C100.564 5.90793 100.519 5.9022 100.475 5.90216L100.078 5.901C100.061 5.901 100.045 5.90771 100.033 5.91965C100.021 5.93159 100.014 5.94778 100.014 5.96467Z" fill="#273142"/>
<path d="M29.8862 9.54657C29.9012 8.9886 29.9024 8.62279 29.3676 8.382C27.652 7.61102 25.6875 8.48734 25.397 10.4159C24.8842 13.8147 28.5434 14.9272 30.7833 12.9361C30.7899 12.9301 30.7977 12.9258 30.8063 12.9233C30.8148 12.9209 30.8237 12.9204 30.8325 12.922C30.8412 12.9235 30.8494 12.9271 30.8566 12.9324C30.8637 12.9376 30.8695 12.9444 30.8736 12.9523L31.3864 13.9212C31.4312 14.0054 31.4158 14.0764 31.3401 14.1342C29.7936 15.3312 27.806 15.682 26.0094 14.7814C23.1397 13.3424 22.9869 9.08699 25.7072 7.41075C27.1033 6.55064 29.7797 6.40478 30.9743 7.7592C31.3841 8.22456 31.2603 8.94808 31.2915 9.53847C31.2938 9.58246 31.2726 9.60445 31.2278 9.60445L29.9441 9.60561C29.9039 9.60561 29.8846 9.58593 29.8862 9.54657Z" fill="#273142"/>
<path d="M57.4294 13.7647C57.3171 13.8804 57.2257 14.0923 57.1064 14.2231C56.3185 15.0859 55.3924 15.4266 54.3282 15.2453C52.9367 15.0079 52.0523 14.105 52.1206 12.6452C52.2318 10.2952 55.5634 10.0082 57.2593 10.0695C57.3449 10.0726 57.3901 10.0317 57.3947 9.9468C57.4387 9.15614 57.1423 8.30529 56.2359 8.1247C55.1848 7.91517 54.3583 8.2231 53.3766 8.78802C53.3327 8.81348 53.2987 8.80422 53.2748 8.76023L52.7168 7.75889C52.7063 7.73984 52.7035 7.71755 52.7088 7.69663C52.7142 7.67572 52.7275 7.6578 52.7457 7.6466C55.061 6.22619 58.8614 6.12085 58.9343 9.8183C58.959 11.0693 58.9694 12.3207 58.9656 13.5725C58.9644 14.0378 59.7747 13.8827 60.0769 13.8943C60.1278 13.8966 60.1533 13.9236 60.1533 13.9753V15.0415C60.1533 15.0762 60.1359 15.094 60.1012 15.0948C58.9459 15.1283 57.2569 15.4721 57.5174 13.8075C57.5336 13.7002 57.5043 13.6859 57.4294 13.7647ZM54.1383 11.7828C53.335 12.4484 53.71 13.6709 54.5956 13.98C56.3297 14.5842 57.4792 12.6325 57.4028 11.1797C57.4013 11.1434 57.382 11.1241 57.3449 11.1218C56.3691 11.0697 54.9255 11.1311 54.1383 11.7828Z" fill="#273142"/>
<path d="M62.8543 8.62055C62.5637 9.25262 63.08 9.83259 63.6484 10.056C64.549 10.4114 65.6742 10.68 66.4533 11.2403C67.6468 12.0969 67.6063 13.7801 66.4799 14.6333C65.1591 15.6334 61.7453 15.5987 60.9824 13.8484C60.8169 13.4687 60.8817 12.9674 60.8759 12.5356C60.8752 12.4947 60.8952 12.4743 60.9361 12.4743H62.184C62.2435 12.4743 62.2674 12.5036 62.2558 12.5623C61.9444 14.0857 64.1242 14.1737 65.0364 13.8646C65.8224 13.5983 66.003 12.7324 65.3489 12.1953C65.1977 12.0718 64.9619 11.9503 64.6416 11.8306C63.5755 11.4324 61.8379 10.9775 61.3517 9.80943C60.9026 8.73053 61.3332 7.67593 62.3519 7.16194C63.4655 6.59818 64.8627 6.62596 65.9775 7.11795C67.1814 7.64815 66.9314 8.22117 67.0298 9.31629C67.0306 9.32389 67.0298 9.33158 67.0273 9.33886C67.0249 9.34614 67.021 9.35283 67.0157 9.35851C67.0105 9.36419 67.0041 9.36873 66.9969 9.37183C66.9898 9.37492 66.982 9.37651 66.9742 9.37648L65.7367 9.37764C65.6866 9.37764 65.6596 9.35294 65.6557 9.30355C65.6372 9.01415 65.7066 8.6657 65.4832 8.42839C64.9484 7.85768 63.2409 7.78243 62.8543 8.62055Z" fill="#273142"/>
<path d="M87.6479 11.0377C87.6419 12.1736 87.1705 13.2606 86.3372 14.0595C85.5039 14.8584 84.3771 15.3038 83.2046 15.2977C82.6241 15.2946 82.0498 15.1808 81.5146 14.9628C80.9793 14.7447 80.4936 14.4267 80.0852 14.0268C79.6768 13.6269 79.3536 13.153 79.1341 12.6322C78.9147 12.1114 78.8033 11.5538 78.8062 10.9914C78.8122 9.8554 79.2836 8.7684 80.1169 7.96949C80.9502 7.17059 82.077 6.72522 83.2495 6.73136C83.83 6.73439 84.4043 6.84819 84.9396 7.06625C85.4748 7.28431 85.9605 7.60235 86.3689 8.00223C86.7773 8.40211 87.1005 8.87599 87.32 9.39681C87.5394 9.91763 87.6508 10.4752 87.6479 11.0377ZM83.2231 13.9387C83.5927 13.9393 83.9587 13.8643 84.3004 13.7179C84.6421 13.5715 84.9527 13.3565 85.2145 13.0853C85.4763 12.8142 85.6841 12.492 85.8262 12.1374C85.9682 11.7827 86.0417 11.4024 86.0424 11.0183C86.043 10.6341 85.9709 10.2536 85.8301 9.89842C85.6893 9.54325 85.4826 9.22041 85.2217 8.94831C84.9609 8.67621 84.651 8.4602 84.3098 8.31259C83.9687 8.16498 83.6029 8.08868 83.2333 8.08803C82.8638 8.08739 82.4977 8.16242 82.156 8.30883C81.8143 8.45525 81.5037 8.67018 81.2419 8.94137C80.9801 9.21255 80.7723 9.53468 80.6302 9.88935C80.4882 10.244 80.4147 10.6243 80.4141 11.0084C80.4134 11.3926 80.4855 11.7731 80.6263 12.1283C80.7671 12.4835 80.9739 12.8063 81.2347 13.0784C81.4955 13.3505 81.8054 13.5665 82.1466 13.7141C82.4877 13.8617 82.8535 13.938 83.2231 13.9387Z" fill="#273142"/>
<path d="M91.4784 8.61884C92.2216 7.33619 93.3452 6.71339 94.8493 6.75043C96.8358 6.80021 97.344 8.31091 97.3417 10.0242C97.3394 11.2937 97.3394 12.5629 97.3417 13.8316C97.3417 13.8702 97.361 13.8895 97.3995 13.8895H98.5849C98.6235 13.8895 98.6428 13.9088 98.6428 13.9474V15.0182C98.6428 15.0761 98.6139 15.105 98.556 15.105H95.8414C95.802 15.105 95.7824 15.0853 95.7824 15.046C95.7731 13.46 95.7723 11.8787 95.7801 10.302C95.7858 9.2729 95.6226 8.22872 94.3331 8.20904C92.9833 8.1882 92.0109 9.06568 91.6497 10.3078C91.3684 11.2767 91.5212 12.777 91.5247 13.8316C91.5247 13.8702 91.544 13.8895 91.5826 13.8895H92.7379C92.7795 13.8895 92.8004 13.9107 92.8004 13.9532V15.0413C92.8004 15.0838 92.7795 15.105 92.7379 15.105H88.7476C88.7113 15.105 88.6928 15.0865 88.692 15.0494L88.677 13.952C88.677 13.9103 88.6978 13.8895 88.7395 13.8895H89.8983C89.9384 13.8895 89.9585 13.8694 89.9585 13.8293C89.9646 12.062 89.9635 10.2982 89.955 8.5378C89.9527 7.94742 89.0474 8.13264 88.6585 8.12916C88.6199 8.12916 88.6006 8.10987 88.6006 8.07128V7.00395C88.6006 6.96613 88.6195 6.94723 88.6573 6.94723C89.2137 6.94028 89.7698 6.94028 90.3254 6.94723C91.5189 6.96228 91.5525 7.61286 91.4356 8.60495C91.4352 8.61013 91.4365 8.6153 91.4394 8.61963C91.4423 8.62395 91.4466 8.62718 91.4515 8.62878C91.4564 8.63038 91.4618 8.63028 91.4667 8.62847C91.4715 8.62667 91.4757 8.62328 91.4784 8.61884Z" fill="#273142"/>
<path d="M39.1921 13.4429C38.3633 14.873 37.1215 15.4765 35.4669 15.2534C34.0442 15.0624 33.4295 13.7451 33.418 12.4497C33.4056 11.0513 33.4052 9.64204 33.4168 8.22202C33.417 8.21022 33.4147 8.19851 33.4103 8.18756C33.4058 8.17661 33.3992 8.16665 33.3908 8.15825C33.3824 8.14985 33.3724 8.14318 33.3613 8.13862C33.3503 8.13407 33.3385 8.13173 33.3265 8.13173H32.1122C32.0751 8.13173 32.0566 8.1132 32.0566 8.07616L32.0427 7.01114C32.0426 7.00254 32.0442 6.99398 32.0474 6.98599C32.0507 6.97799 32.0555 6.9707 32.0616 6.96456C32.0678 6.95842 32.0751 6.95354 32.0832 6.95021C32.0913 6.94688 32.1 6.94516 32.1087 6.94516H34.9159C34.9568 6.94516 34.9773 6.96523 34.9773 7.00536C34.9749 8.66539 34.9715 10.3235 34.9668 11.9797C34.9645 12.768 35.1903 13.6501 36.0538 13.8261C37.8863 14.2 39.0983 12.5099 39.1562 10.8579C39.1825 10.1194 39.1844 9.22838 39.162 8.18498C39.1612 8.14948 39.1427 8.13173 39.1064 8.13173H37.869C37.8111 8.13173 37.7821 8.10279 37.7821 8.0449V7.03198C37.7821 6.9741 37.8111 6.94516 37.869 6.94516H40.6715C40.7109 6.94516 40.7306 6.96484 40.7306 7.0042C40.7375 9.14966 40.7383 11.2913 40.7329 13.429C40.7306 14.112 41.4541 13.9071 41.894 13.9245C41.931 13.926 41.9495 13.9453 41.9495 13.9824V15.0428C41.9495 15.0813 41.9302 15.101 41.8916 15.1018C41.3954 15.1111 40.9015 15.1122 40.4099 15.1053C39.0868 15.0879 39.2373 14.5311 39.2373 13.4556C39.2373 13.3954 39.2222 13.3912 39.1921 13.4429Z" fill="#273142"/>
<path d="M75.2025 13.833V8.18961C75.2025 8.17426 75.1964 8.15953 75.1855 8.14868C75.1747 8.13782 75.1599 8.13173 75.1446 8.13173H73.9002C73.8848 8.13173 73.8701 8.12563 73.8592 8.11477C73.8484 8.10392 73.8423 8.0892 73.8423 8.07384V7.00304C73.8423 6.98769 73.8484 6.97297 73.8592 6.96211C73.8701 6.95126 73.8848 6.94516 73.9002 6.94516H76.7085C76.7239 6.94516 76.7386 6.95126 76.7494 6.96211C76.7603 6.97297 76.7664 6.98769 76.7664 7.00304L76.7652 13.833C76.7652 13.8484 76.7713 13.8631 76.7822 13.874C76.793 13.8848 76.8078 13.8909 76.8231 13.8909H78.0097C78.025 13.8909 78.0397 13.897 78.0506 13.9079C78.0615 13.9187 78.0675 13.9334 78.0675 13.9488V15.0485C78.0675 15.0639 78.0615 15.0786 78.0506 15.0895C78.0397 15.1003 78.025 15.1064 78.0097 15.1064H73.987C73.9716 15.1064 73.9569 15.1003 73.9461 15.0895C73.9352 15.0786 73.9291 15.0639 73.9291 15.0485V13.9488C73.9291 13.9334 73.9352 13.9187 73.9461 13.9079C73.9569 13.897 73.9716 13.8909 73.987 13.8909H75.1446C75.1599 13.8909 75.1747 13.8848 75.1855 13.874C75.1964 13.8631 75.2025 13.8484 75.2025 13.833Z" fill="#273142"/>
</svg>
