<svg width="16" height="17" viewBox="0 0 16 17" fill="none" xmlns="http://www.w3.org/2000/svg">
<g clip-path="url(#clip0_31_1026)">
<path d="M8 10.5C9.10457 10.5 10 9.60457 10 8.5C10 7.39543 9.10457 6.5 8 6.5C6.89543 6.5 6 7.39543 6 8.5C6 9.60457 6.89543 10.5 8 10.5Z" stroke="#273142" stroke-width="1.3" stroke-linecap="round" stroke-linejoin="round"/>
<path d="M12.9334 10.5C12.8447 10.7011 12.8182 10.9241 12.8574 11.1404C12.8966 11.3566 12.9997 11.5562 13.1534 11.7133L13.1934 11.7533C13.3174 11.8772 13.4157 12.0242 13.4828 12.1861C13.5499 12.3479 13.5845 12.5214 13.5845 12.6967C13.5845 12.8719 13.5499 13.0454 13.4828 13.2072C13.4157 13.3691 13.3174 13.5162 13.1934 13.64C13.0696 13.764 12.9225 13.8623 12.7607 13.9294C12.5988 13.9965 12.4253 14.031 12.2501 14.031C12.0749 14.031 11.9014 13.9965 11.7395 13.9294C11.5776 13.8623 11.4306 13.764 11.3067 13.64L11.2667 13.6C11.1096 13.4463 10.9101 13.3432 10.6938 13.304C10.4775 13.2648 10.2545 13.2912 10.0534 13.38C9.85623 13.4645 9.68807 13.6048 9.56962 13.7837C9.45117 13.9625 9.3876 14.1721 9.38675 14.3867V14.5C9.38675 14.8536 9.24627 15.1927 8.99622 15.4428C8.74617 15.6928 8.40704 15.8333 8.05341 15.8333C7.69979 15.8333 7.36065 15.6928 7.11061 15.4428C6.86056 15.1927 6.72008 14.8536 6.72008 14.5V14.44C6.71492 14.2193 6.64349 14.0053 6.51509 13.8258C6.38668 13.6463 6.20724 13.5095 6.00008 13.4333C5.799 13.3446 5.57595 13.3181 5.35969 13.3573C5.14343 13.3965 4.94387 13.4996 4.78675 13.6533L4.74675 13.6933C4.62292 13.8173 4.47587 13.9156 4.314 13.9827C4.15214 14.0498 3.97864 14.0844 3.80341 14.0844C3.62819 14.0844 3.45469 14.0498 3.29283 13.9827C3.13096 13.9156 2.98391 13.8173 2.86008 13.6933C2.73611 13.5695 2.63777 13.4224 2.57067 13.2606C2.50357 13.0987 2.46903 12.9252 2.46903 12.75C2.46903 12.5748 2.50357 12.4013 2.57067 12.2394C2.63777 12.0775 2.73611 11.9305 2.86008 11.8067L2.90008 11.7667C3.05377 11.6095 3.15687 11.41 3.19608 11.1937C3.2353 10.9775 3.20882 10.7544 3.12008 10.5533C3.03557 10.3561 2.89525 10.188 2.71639 10.0695C2.53753 9.95108 2.32794 9.88751 2.11341 9.88666H2.00008C1.64646 9.88666 1.30732 9.74618 1.05727 9.49613C0.807224 9.24608 0.666748 8.90694 0.666748 8.55332C0.666748 8.1997 0.807224 7.86056 1.05727 7.61051C1.30732 7.36047 1.64646 7.21999 2.00008 7.21999H2.06008C2.28074 7.21483 2.49475 7.1434 2.67428 7.015C2.85381 6.88659 2.99056 6.70715 3.06675 6.49999C3.15549 6.29891 3.18196 6.07586 3.14275 5.8596C3.10354 5.64333 3.00044 5.44378 2.84675 5.28666L2.80675 5.24666C2.68278 5.12283 2.58443 4.97577 2.51733 4.81391C2.45024 4.65205 2.4157 4.47854 2.4157 4.30332C2.4157 4.1281 2.45024 3.9546 2.51733 3.79274C2.58443 3.63087 2.68278 3.48382 2.80675 3.35999C2.93058 3.23602 3.07763 3.13768 3.23949 3.07058C3.40136 3.00348 3.57486 2.96894 3.75008 2.96894C3.9253 2.96894 4.0988 3.00348 4.26067 3.07058C4.42253 3.13768 4.56958 3.23602 4.69341 3.35999L4.73341 3.39999C4.89053 3.55368 5.09009 3.65678 5.30636 3.69599C5.52262 3.73521 5.74567 3.70873 5.94675 3.61999H6.00008C6.19726 3.53548 6.36543 3.39516 6.48388 3.2163C6.60233 3.03744 6.66589 2.82785 6.66675 2.61332V2.49999C6.66675 2.14637 6.80722 1.80723 7.05727 1.55718C7.30732 1.30713 7.64646 1.16666 8.00008 1.16666C8.3537 1.16666 8.69284 1.30713 8.94289 1.55718C9.19294 1.80723 9.33341 2.14637 9.33341 2.49999V2.55999C9.33427 2.77451 9.39784 2.98411 9.51629 3.16297C9.63474 3.34183 9.8029 3.48215 10.0001 3.56666C10.2012 3.6554 10.4242 3.68187 10.6405 3.64266C10.8567 3.60345 11.0563 3.50035 11.2134 3.34666L11.2534 3.30666C11.3772 3.18269 11.5243 3.08434 11.6862 3.01724C11.848 2.95014 12.0215 2.91561 12.1967 2.91561C12.372 2.91561 12.5455 2.95014 12.7073 3.01724C12.8692 3.08434 13.0162 3.18269 13.1401 3.30666C13.264 3.43049 13.3624 3.57754 13.4295 3.7394C13.4966 3.90127 13.5311 4.07477 13.5311 4.24999C13.5311 4.42521 13.4966 4.59871 13.4295 4.76058C13.3624 4.92244 13.264 5.06949 13.1401 5.19332L13.1001 5.23332C12.9464 5.39044 12.8433 5.59 12.8041 5.80626C12.7649 6.02253 12.7913 6.24558 12.8801 6.44666V6.49999C12.9646 6.69717 13.1049 6.86533 13.2838 6.98378C13.4626 7.10224 13.6722 7.1658 13.8867 7.16666H14.0001C14.3537 7.16666 14.6928 7.30713 14.9429 7.55718C15.1929 7.80723 15.3334 8.14637 15.3334 8.49999C15.3334 8.85361 15.1929 9.19275 14.9429 9.4428C14.6928 9.69285 14.3537 9.83332 14.0001 9.83332H13.9401C13.7256 9.83418 13.516 9.89774 13.3371 10.0162C13.1582 10.1346 13.0179 10.3028 12.9334 10.5Z" stroke="#273142" stroke-width="1.3" stroke-linecap="round" stroke-linejoin="round"/>
</g>
<defs>
<clipPath id="clip0_31_1026">
<rect width="16" height="16" fill="white" transform="translate(0 0.5)"/>
</clipPath>
</defs>
</svg>
